<svg viewBox="0 0 19.0055 24.0322" xmlns="http://www.w3.org/2000/svg" xmlns:xlink="http://www.w3.org/1999/xlink" width="19.005493" height="24.032227" fill="none" customFrame="#000000">
	<path id="Vector 25" d="M9.43101 12.397C7.13621 12.3939 5.16086 11.7902 3.50497 10.5858C1.87625 9.40072 1.05349 7.95247 1.03671 6.24109C1.04967 4.52132 1.86925 3.06186 3.49547 1.86272C5.14756 0.644074 7.12608 0.0231659 9.43101 0C10.5515 -4.63567e-05 11.6318 0.157981 12.6719 0.474083C13.7034 0.788601 14.6164 1.24068 15.4109 1.83032C16.1968 2.41298 16.8005 3.08909 17.2221 3.85867C17.6369 4.61481 17.8396 5.42495 17.8237 6.24109C17.8388 7.06271 17.6356 7.85205 17.2142 8.6091C16.7874 9.3712 16.1815 10.0401 15.3966 10.6159C14.5994 11.1967 13.6864 11.6408 12.6576 11.9481C11.6206 12.2567 10.545 12.4059 9.43101 12.3958M9.43101 3.67504C8.45084 3.67271 7.61226 3.93276 6.91525 4.45518C6.5858 4.70274 6.33565 4.98999 6.1648 5.31693C5.99585 5.64088 5.9188 5.97694 5.93365 6.3251C5.92573 6.65996 6.01281 6.99122 6.18696 7.29967C6.3627 7.60933 6.62235 7.88778 6.95008 8.12062C7.27781 8.35226 7.66729 8.53349 8.09318 8.65111C8.52065 8.76873 8.97504 8.82034 9.43101 8.80474C9.88223 8.81194 10.3335 8.75433 10.7546 8.63311C11.1757 8.51189 11.562 8.33306 11.8866 8.10142C12.2112 7.87098 12.4724 7.59493 12.6497 7.29007C12.8286 6.98522 12.9236 6.65756 12.9268 6.32511C12.9426 5.98185 12.8635 5.63859 12.6956 5.31693C12.5246 4.99043 12.2745 4.70358 11.9452 4.45638C11.6134 4.20486 11.2303 4.01203 10.7958 3.87788C10.3583 3.74276 9.90339 3.67475 9.43101 3.67384M12.8112 17.5243L17.591 20.9425C17.8127 21.1057 17.9884 21.2989 18.1087 21.5114C18.5224 22.2396 18.3499 22.8765 17.591 23.4221C17.3852 23.6033 17.1255 23.7497 16.8326 23.8494C15.8206 24.1939 14.9466 24.0515 14.2108 23.4221L9.42943 20.0027L4.76681 23.4233C4.53548 23.595 4.26897 23.7255 3.96727 23.8146C3.66646 23.9022 3.34348 23.9442 3.01892 23.9346C2.35783 23.9175 1.7752 23.7467 1.27103 23.4221C1.04895 23.2582 0.87585 23.0685 0.751727 22.8532C0.339318 22.1252 0.512418 21.4887 1.27103 20.9437L6.16639 17.5231C4.41627 17.1224 2.74543 16.5811 1.15387 15.8992C0.598511 15.634 0.239645 15.2603 0.0772695 14.7782C-0.0820751 14.2981 0.00500271 13.8452 0.338503 13.4195C0.515825 13.2131 0.750144 13.0355 1.02404 12.8963C1.60671 12.6009 2.24106 12.5077 2.92709 12.6166C3.25324 12.667 3.56197 12.7666 3.83428 12.9071C5.58255 13.6771 7.46765 14.0616 9.48959 14.0605C11.5104 14.0611 13.3945 13.6767 15.1417 12.9071C15.7207 12.6072 16.354 12.5092 17.0416 12.613C17.3678 12.661 17.6781 12.757 17.9536 12.8963C18.229 13.0355 18.4618 13.2131 18.6391 13.4195C18.9716 13.8216 19.0824 14.3005 18.9526 14.7602C18.8138 15.2416 18.4761 15.6212 17.9393 15.8992C16.3073 16.5818 14.5974 17.1231 12.8096 17.5231" fill="rgb(0,0,0)" fill-rule="nonzero" />
</svg>
