<svg viewBox="0 0 24 20" xmlns="http://www.w3.org/2000/svg" xmlns:xlink="http://www.w3.org/1999/xlink" width="24.000000" height="20.000000" fill="none" customFrame="#000000">
	<path id="Vector 26" d="M1.64987 8.61009C8.09318 5.78759 12.3892 3.92676 14.5381 3.0276C20.675 0.461346 21.9506 0.0150961 22.7822 9.65595e-05C22.9646 -0.00240356 23.3738 0.0425964 23.6378 0.258846C23.8193 0.415774 23.9241 0.61619 23.9522 0.860096C23.9822 1.03385 24.0182 1.4276 23.9894 1.7351C23.657 5.24884 22.2182 13.7763 21.4862 17.7113C21.1754 19.3776 20.5658 19.9363 19.9754 19.9901C18.6913 20.1088 17.7181 19.1376 16.4749 18.3176C14.5297 17.0363 13.4305 16.2376 11.5428 14.9863C9.36119 13.5413 10.7748 12.7463 12.018 11.4476C12.3444 11.1076 17.9989 5.93509 18.1081 5.46634C18.1213 5.40759 18.1345 5.19009 18.0049 5.07384C17.8753 4.95884 17.6857 4.99884 17.5477 5.02884C17.3525 5.07384 14.2453 7.13926 8.22597 11.2251C7.34436 11.8334 6.54554 12.1301 5.82953 12.1151C5.03992 12.0976 3.5219 11.6663 2.39388 11.2976C1.01025 10.8451 -0.0901635 10.6063 0.00583801 9.83759C0.0554389 9.43759 0.603448 9.02842 1.64987 8.61009L1.64987 8.61009Z" fill="rgb(0,0,0)" fill-rule="nonzero" />
</svg>
