<svg viewBox="0 0 24 24" xmlns="http://www.w3.org/2000/svg" xmlns:xlink="http://www.w3.org/1999/xlink" width="24.000000" height="24.000000" fill="none" customFrame="#000000">
	<path id="Vector 24" d="M1.6872 1.6872C0 3.3744 0 6.09 0 11.52L0 12.48C0 17.91 0 20.6256 1.6872 22.3128C3.3744 24 6.09 24 11.52 24L12.48 24C17.91 24 20.6256 24 22.3128 22.3128C24 20.6256 24 17.91 24 12.48L24 11.52C24 6.09 24 3.3744 22.3128 1.6872C20.6256 -1.07288e-06 17.91 0 12.48 0L11.52 0C6.09 0 3.3744 0 1.6872 1.6872ZM4.05 7.2996L6.7896 7.2996C6.8796 11.88 8.9004 13.8204 10.5 14.22L10.5 7.2996L13.08 7.2996L13.08 11.25C14.6604 11.0796 16.32 9.2796 16.8804 7.2996L19.4604 7.2996C19.0296 9.7404 17.2296 11.5404 15.9504 12.2796C17.2296 12.8796 19.2804 14.4504 20.0604 17.2896L17.22 17.2896C16.6104 15.39 15.09 13.92 13.08 13.7196L13.08 17.2896L12.7704 17.2896C7.2996 17.2896 4.1796 13.5396 4.05 7.2996L4.05 7.2996Z" fill="rgb(0,0,0)" fill-rule="nonzero" />
</svg>
