<svg viewBox="0 0 18.0001 18" xmlns="http://www.w3.org/2000/svg" xmlns:xlink="http://www.w3.org/1999/xlink" width="18.000107" height="18.000000" fill="none" customFrame="#000000">
	<path id="Vector 32" d="M4.00005 2C4.00005 0.5 4.00005 0 5.00005 0C6.00005 0 6.00005 0.5 6.00005 2L12.0001 2C12.0001 0.5 12.0001 0 13.0001 0C14.0001 0 14.0001 0.5 14.0001 2C16.5001 2 18.0001 2.5 18.0001 5C18.0001 6.016 17.2901 6.01 16.2901 6.002L16.0001 6L2.00005 6C0.850052 6 5.19753e-05 6 5.19753e-05 5C5.19753e-05 2.618 1.50005 2 4.00005 2ZM1.00005 7L17.0001 7C17.5001 7 17.8751 7.39 17.9271 8C17.9771 8.61 18.0014 9.27667 18.0001 10C18.0001 17 17.0001 18 9.00005 18C1.00005 18 5.19753e-05 17 5.19753e-05 10C-0.00128142 9.27667 0.0230519 8.61 0.0730519 8C0.125052 7.39 0.500052 7 1.00005 7ZM3.07605 9.617C3.00005 9.801 3.00005 10.034 3.00005 10.5C3.00005 10.966 3.00005 11.199 3.07605 11.383C3.18194 11.6376 3.36227 11.8176 3.61705 11.923C3.80105 12 4.03405 12 4.50005 12C4.96605 12 5.19905 12 5.38305 11.924C5.63764 11.8181 5.81764 11.6378 5.92305 11.383C6.00005 11.199 6.00005 10.966 6.00005 10.5C6.00005 10.034 6.00005 9.801 5.92405 9.617C5.81816 9.36242 5.63783 9.18242 5.38305 9.077C5.19905 9 4.96605 9 4.50005 9C4.03405 9 3.80105 9 3.61705 9.076C3.36247 9.18189 3.18247 9.36222 3.07705 9.617" fill="rgb(153,163,174)" fill-rule="nonzero" />
</svg>
