<svg viewBox="0 0 19 16" xmlns="http://www.w3.org/2000/svg" xmlns:xlink="http://www.w3.org/1999/xlink" width="19.000000" height="16.000000" fill="none" customFrame="#000000">
	<rect id="Frame 1" width="19.000000" height="16.000000" x="0.000000" y="0.000000" />
	<path id="Vector 18" d="M9 0C1.589 0 0 0.588 0 8C0 15.412 1.588 16 9 16C13.5 16 15.484 15.748 16.358 13.5C16.747 12.5 16.514 12 15 12L11 12C9.89543 12 8.95262 11.6095 8.17157 10.8284C7.39052 10.0474 7 9.10457 7 8C7 6.89543 7.39052 5.95262 8.17157 5.17157C8.95262 4.39052 9.89543 4 11 4L15 4C16.514 4 16.747 3.5 16.358 2.5C15.484 0.252 13.5 0 9 0Z" fill="rgb(153,163,174)" fill-rule="nonzero" />
	<path id="Vector 19" d="M12 5L17 5C18 5 19 5.5 19 8C19 10.5 18 11 17 11L12 11C11.1716 11 10.4645 10.7071 9.87868 10.1213C9.29289 9.53553 9 8.82843 9 8C9 7.17157 9.29289 6.46447 9.87868 5.87868C10.4645 5.29289 11.1716 5 12 5ZM13 8C13 7.33333 12.6667 7 12 7C11.3333 7 11 7.33333 11 8C11 8.66667 11.3333 9 12 9C12.6667 9 13 8.66667 13 8Z" fill="rgb(153,163,174)" fill-rule="nonzero" />
</svg>
