<svg viewBox="0 0 16 18.9957" xmlns="http://www.w3.org/2000/svg" xmlns:xlink="http://www.w3.org/1999/xlink" width="16.000000" height="18.995667" fill="none" customFrame="#000000">
	<path id="Vector 20" d="M12.99 5.99065C12.972 4.82565 12.845 3.10065 12 1.99565C10.55 0.0986519 7.696 -0.334348 7.154 0.229652C6.612 0.793652 7.565 2.38665 8.998 3.97565C9.738 4.79865 11.073 6.04765 11.995 6.64965C13.025 7.32165 13.015 6.93165 12.995 6.19365L12.99 5.99065ZM6.154 4.99565C8.863 4.99565 9.884 6.57765 10.641 7.75165C11.088 8.44565 11.443 8.99565 12 8.99565C13.5 8.99565 16 9.99565 16 12.6317C16 16.4957 12.73 18.9957 8.615 18.9957C4.5 18.9957 0 16.9957 0 11.4957C0 8.15565 2.462 4.99565 6.154 4.99565ZM3.93 11.3637C4.17533 10.7437 3.988 10.311 3.368 10.0657C2.748 9.82032 2.31533 10.0077 2.07 10.6277C1.5 12.0697 1.816 13.5607 2.545 14.7027C3.267 15.8367 4.457 16.7327 5.821 16.9797C6.477 17.0987 6.8645 16.8302 6.9835 16.1742C7.1025 15.5182 6.834 15.1307 6.178 15.0117C5.434 14.8767 4.696 14.3567 4.231 13.6277C3.772 12.9077 3.643 12.0897 3.93 11.3637L3.93 11.3637Z" fill="rgb(153,163,174)" fill-rule="nonzero" />
</svg>
