<svg viewBox="0 0 18 17" xmlns="http://www.w3.org/2000/svg" xmlns:xlink="http://www.w3.org/1999/xlink" width="18.000000" height="17.000000" fill="none" customFrame="#000000">
	<path id="Vector 16" d="M9 0C13.876 0 16.11 0 17.134 1.113C18 2.055 18 3.793 18 7C18 10.207 18 11.945 17.134 12.887C16.11 14 13.876 14 9 14C4.124 14 1.89 14 0.866 12.887C0 11.945 0 10.207 0 7C0 3.793 0 2.055 0.866 1.113C1.89 0 4.124 0 9 0ZM9 4C9.66667 4 10 3.66667 10 3C10 2.33333 9.66667 2 9 2C8.33333 2 8 2.33333 8 3C8 3.66667 8.33333 4 9 4ZM4 16C4 15.3333 4.33333 15 5 15L13 15C13.6667 15 14 15.3333 14 16C14 16.6667 13.6667 17 13 17L5 17C4.33333 17 4 16.6667 4 16Z" fill="rgb(153,163,174)" fill-rule="nonzero" />
</svg>
