<svg viewBox="0 0 20 15.9999" xmlns="http://www.w3.org/2000/svg" xmlns:xlink="http://www.w3.org/1999/xlink" width="20.000000" height="15.999878" fill="none" customFrame="#000000">
	<path id="Vector 21" d="M0 10L0 4C0 1 1 0 5.5 0C13 0 14 0 14 2C14 2.5 14 2.885 13 3.091C12.464 3.201 12.021 3.418 11.685 3.771C11.162 4.32 11 5.093 11 5.953L11 8.5C11 8.83333 11.1667 9 11.5 9C11.8333 9 12 8.83333 12 8.5L12 6C12 4.5 12.5 4 14 4L16 4C17 4 17.5 4.5 18.5 6C19.285 7.177 20 8 20 9L20 13C20 14 19.443 13.996 18.832 13.992C18.3633 15.3286 17.4207 15.9979 16.0043 15.9999C14.5879 16.0019 13.6435 15.3352 13.171 14L7.829 14C7.35655 15.3345 6.41251 16.001 4.99688 15.9995C3.58124 15.998 2.63862 15.3295 2.169 13.994C0 14 0 12.864 0 10ZM4 13C4 13.6667 4.33333 14 5 14C5.66667 14 6 13.6667 6 13C6 12.3333 5.66667 12 5 12C4.33333 12 4 12.3333 4 13ZM15 13C15 13.6667 15.3333 14 16 14C16.6667 14 17 13.6667 17 13C17 12.3333 16.6667 12 16 12C15.3333 12 15 12.3333 15 13Z" fill="rgb(153,163,174)" fill-rule="nonzero" />
</svg>
