<svg viewBox="0 0 18 18" xmlns="http://www.w3.org/2000/svg" xmlns:xlink="http://www.w3.org/1999/xlink" width="18.000000" height="18.000000" fill="none" customFrame="#000000">
	<path id="Vector 17" d="M3.132 4.306C3.357 2.993 3.875 1.969 4.724 1.241C5.876 0.253 7.428 0 9 0C10.572 0 12.124 0.253 13.276 1.24C14.126 1.969 14.642 2.993 14.868 4.306C17.553 4.762 18 5.812 18 8C18 10.735 16.431 11.715 12 11.959C11.106 12.008 11.099 11.967 10.996 11.403C10.9724 11.2681 10.9457 11.1337 10.916 11C10.736 10.21 10.228 10 9 10C7.772 10 7.264 10.21 7.084 11C7.04933 11.1567 7.02267 11.291 7.004 11.403C6.901 11.967 6.894 12.008 6 11.959C1.569 11.715 0 10.735 0 8C0 5.812 0.447 4.762 3.132 4.306M5.23 4.086C6.48584 4.02086 7.7425 3.9922 9 4C10.485 4 11.73 4.025 12.77 4.087C12.582 3.445 12.295 3.034 11.974 2.759C11.376 2.247 10.428 2 9 2C7.572 2 6.624 2.247 6.026 2.76C5.706 3.034 5.418 3.445 5.23 4.087M9 14C8.601 14 8.27 13.982 8 13.93C7.532 13.841 7.302 13.637 7.079 13.437C6.825 13.212 6.579 12.992 6 12.952C5.56149 12.92 5.12382 12.879 4.687 12.829C3.71 12.721 2.687 12.667 1.74 12.387C1.34 12.269 1 12.168 1 13C1 17.09 2.5 18 9 18C15.5 18 17 17.09 17 13C17 12.168 16.66 12.269 16.26 12.387C15.313 12.667 14.29 12.721 13.313 12.829C12.898 12.875 12.473 12.919 12 12.952C11.421 12.992 11.175 13.212 10.921 13.437C10.698 13.637 10.468 13.841 10 13.93C9.73 13.982 9.399 14 9 14Z" fill="rgb(153,163,174)" fill-rule="nonzero" />
</svg>
