<svg viewBox="0 0 17.9786 17.9999" xmlns="http://www.w3.org/2000/svg" xmlns:xlink="http://www.w3.org/1999/xlink" width="17.978638" height="17.999939" fill="none" customFrame="#000000">
	<path id="Vector 22" d="M7.117 3.08996C6.747 1.20096 7.177 0.691963 9.551 0.205963C11.925 -0.280037 12.514 0.019963 12.883 1.90896C13.253 3.79896 12.823 4.30796 10.449 4.79396C8.075 5.27996 7.486 4.97996 7.117 3.09096M11.827 5.28796C8.265 5.96896 7.621 6.68196 8.175 9.32696C8.729 11.972 9.612 12.392 13.174 11.711C16.735 11.031 17.38 10.318 16.824 7.67296C16.27 5.02896 15.388 4.60796 11.826 5.28796M7 18C7.82843 18 8.53553 17.7071 9.12132 17.1213C9.70711 16.5355 10 15.8284 10 15C10 14.1715 9.70711 13.4644 9.12132 12.8786C8.53553 12.2929 7.82843 12 7 12C6.17157 12 5.46447 12.2929 4.87868 12.8786C4.29289 13.4644 4 14.1715 4 15C4 15.8284 4.29289 16.5355 4.87868 17.1213C5.46447 17.7071 6.17157 18 7 18ZM0 1.99996C0 1.3333 0.333333 0.999963 1 0.999963C2.367 0.999963 3.466 1.27096 4.281 2.00796C5.073 2.72396 5.426 3.73396 5.667 4.77496L6.872 9.99996L6.905 10.132C7.014 10.563 7.094 10.879 6.121 11.097C5.151 11.314 5.051 11 4.935 10.5L3.718 5.22496C3.497 4.26596 3.254 3.77496 2.94 3.49196C2.65 3.22896 2.133 2.99996 1 2.99996C0.333333 2.99996 0 2.66663 0 1.99996ZM11.5 13.08C11.026 13.175 10.774 13.4 10.934 14.272C11.094 15.144 11.403 15.139 12 15.02L17.196 13.98C17.8229 13.832 18.0732 13.4422 17.9468 12.8106C17.8205 12.179 17.4396 11.9154 16.804 12.02L11.5 13.08Z" fill="rgb(153,163,174)" fill-rule="nonzero" />
</svg>
