<svg viewBox="0 0 55 55" xmlns="http://www.w3.org/2000/svg" xmlns:xlink="http://www.w3.org/1999/xlink" width="55.000000" height="55.000000" fill="none">
	<rect id="rustore 1" width="55.000000" height="55.000000" x="0.000000" y="0.000000" />
	<rect id="Rectangle 104" width="55.000000" height="55.000000" x="0.000000" y="0.000000" rx="12.000000" fill="rgb(0,119,255)" />
	<path id="Vector 11" d="M30.8974 33.2914C29.5574 32.9566 28.6177 31.7578 28.6177 30.383L28.6177 14.1856C28.6177 12.6241 30.0934 11.4788 31.6154 11.859L41.2543 14.2669C42.5944 14.6016 43.5339 15.8002 43.5339 17.1751L43.5339 33.3725C43.5339 34.9341 42.0584 36.0794 40.5363 35.6992L30.8974 33.2914Z" fill="rgb(255,255,255)" fill-rule="nonzero" />
	<path id="Vector 12" d="M12.7559 40.7497C11.4158 40.4149 10.4762 39.2161 10.4762 37.8414L10.4762 21.644C10.4762 20.0824 11.9518 18.9371 13.4738 19.3173L23.1127 21.7252C24.4527 22.0599 25.3925 23.2587 25.3925 24.6334L25.3925 40.8308C25.3925 42.3924 23.9168 43.5377 22.3947 43.1574L12.7559 40.7497Z" fill="rgb(255,255,255)" fill-rule="nonzero" />
	<path id="Vector 13" d="M21.8266 37.0206C20.4866 36.6859 19.547 35.4871 19.547 34.1123L19.547 17.915C19.547 16.3534 21.0226 15.2081 22.5446 15.5883L32.1835 17.9961C33.5235 18.3309 34.4631 19.5297 34.4631 20.9044L34.4631 37.1018C34.4631 38.6634 32.9876 39.8087 31.4655 39.4285L21.8266 37.0206Z" fill="rgb(255,255,255)" fill-rule="nonzero" />
	<path id="Vector 14" d="M28.1353 38.6008C27.7131 38.4933 27.4127 38.1201 27.398 37.6847L26.9787 25.3149C26.8575 23.6778 25.6421 22.3757 24.3721 21.9923C24.3009 21.9708 24.2247 21.9997 24.1825 22.061C24.1395 22.1234 24.1562 22.2097 24.216 22.256C24.5297 22.4988 25.3928 23.2911 25.3928 24.6574L25.3901 37.9052L28.1353 38.6008Z" fill="rgb(43,113,246)" fill-rule="nonzero" />
	<path id="Vector 15" d="M37.2083 34.8681C36.7865 34.7627 36.4857 34.3905 36.471 33.956L36.0516 21.587C35.9303 19.9499 34.7151 18.6478 33.4451 18.2644C33.3739 18.2429 33.2977 18.2718 33.2555 18.3331C33.2125 18.3955 33.2292 18.4819 33.289 18.5281C33.6025 18.7709 34.4658 19.5632 34.4658 20.9296L34.4631 34.1818L37.2083 34.8681Z" fill="rgb(43,113,246)" fill-rule="nonzero" />
</svg>
