<svg width="18" height="17" viewBox="0 0 18 17" fill="none" xmlns="http://www.w3.org/2000/svg">
<g clip-path="url(#clip0_1_2)">
<path d="M9.11 0C11.516 0 12.268 0.944 12.666 2.184C17.017 2.735 18 4.644 18 9.5C18 15.5 16.5 17 9 17C1.5 17 0 15.5 0 9.5C0 4.559 1.017 2.67 5.565 2.157C5.965 0.93 6.724 0 9.11 0ZM5 6C5 5.33333 4.66667 5 4 5C3.33333 5 3 5.33333 3 6C3 6.66667 3.33333 7 4 7C4.66667 7 5 6.66667 5 6ZM9 14C10.1046 14 11.0474 13.6095 11.8284 12.8284C12.6095 12.0474 13 11.1046 13 10C13 8.89543 12.6095 7.95262 11.8284 7.17157C11.0474 6.39052 10.1046 6 9 6C7.89543 6 6.95262 6.39052 6.17157 7.17157C5.39052 7.95262 5 8.89543 5 10C5 11.1046 5.39052 12.0474 6.17157 12.8284C6.95262 13.6095 7.89543 14 9 14Z" fill="#005BFF"/>
</g>
<defs>
<clipPath id="clip0_1_2">
<rect width="18" height="17" fill="white"/>
</clipPath>
</defs>
</svg>
