<svg viewBox="0 0 20 22" xmlns="http://www.w3.org/2000/svg" xmlns:xlink="http://www.w3.org/1999/xlink" width="20.000000" height="22.000000" fill="none" customFrame="#000000">
	<path id="Vector 28" d="M4.375 13.4444C6.25 13.4506 6.25 14.6667 10 14.6667C13.75 14.6667 13.75 13.4444 15.625 13.4444C16.875 13.4444 20 16.5 20 17.7222C20 18.9444 16.8538 22 9.98875 22C3.125 22 0 18.9444 0 17.7222C0 16.5 3.125 13.4408 4.375 13.4444ZM10 0C6.25 0 3.75 2.44444 3.75 6.11111C3.75 9.77778 6.25 12.2222 10 12.2222C13.75 12.2222 16.25 9.77778 16.25 6.11111C16.25 2.44444 13.75 0 10 0Z" fill="rgb(196,196,196)" fill-rule="nonzero" />
</svg>
