<svg width="25" height="23" viewBox="0 0 25 23" fill="none" xmlns="http://www.w3.org/2000/svg">
<path fill-rule="evenodd" clip-rule="evenodd" d="M2.87103 3.88297L10.111 0.47591C11.4594 -0.158634 13.0206 -0.158637 14.369 0.4759L21.609 3.88296C23.3614 4.70764 24.48 6.47024 24.48 8.40706V14.9055C24.48 16.9013 23.2931 18.706 21.4604 19.4966L14.2205 22.6197C12.9564 23.1649 11.5236 23.1649 10.2595 22.6197L3.01955 19.4966C1.18694 18.706 0 16.9013 0 14.9055L4.22269e-05 8.40704C4.22269e-05 6.47024 1.11858 4.70766 2.87103 3.88297Z" fill="#005BFF"/>
<path fill-rule="evenodd" clip-rule="evenodd" d="M16.2443 2.71251C16.176 2.75518 16.1047 2.79963 16.0305 2.84578C14.9505 3.51809 13.254 4.56066 10.9407 5.97352C8.78215 7.29187 7.31595 8.19307 6.54214 8.67709C5.93059 9.05952 5.47085 9.35365 5.16276 9.55953C5.0514 9.63383 4.95983 9.69663 4.88794 9.74793C4.85565 9.77103 4.82733 9.79173 4.80297 9.81013C4.77383 9.83223 4.75501 9.84713 4.74649 9.85503C4.7568 9.84543 4.76861 9.83253 4.7816 9.81653C4.85168 9.72983 4.89576 9.62693 4.91384 9.50773C4.91007 9.53273 4.90143 9.61273 4.88794 9.74793C4.86607 9.96703 4.83145 10.3306 4.78414 10.8389C4.6936 11.8105 4.61068 12.7505 4.53552 13.659C4.4378 14.8409 4.36803 15.7926 4.32649 16.5141C4.30259 16.9301 4.28869 17.2578 4.2851 17.497C4.28385 17.5735 4.28371 17.6392 4.28462 17.6942C4.28511 17.7246 4.28593 17.7517 4.28705 17.7756C4.28824 17.7994 4.28944 17.8164 4.29063 17.8265C4.28779 17.8034 4.28002 17.7746 4.26747 17.7402C4.24865 17.6882 4.22788 17.6496 4.20547 17.6244C4.21607 17.6364 4.23565 17.654 4.26389 17.6774C4.27055 17.6829 4.27746 17.6885 4.28462 17.6942C4.36293 17.7566 4.47047 17.8309 4.60724 17.917C4.89755 18.0996 5.27407 18.3078 5.73695 18.5416C6.14903 18.7498 6.54065 18.9343 6.91209 19.0951C6.91921 19.0982 6.92628 19.1013 6.93329 19.1043C7.09028 19.172 7.22112 19.2253 7.32566 19.2642C7.37422 19.2822 7.41307 19.2956 7.44206 19.3044C7.45072 19.307 7.45655 19.3086 7.45954 19.3093C7.44803 19.3066 7.43324 19.3046 7.41546 19.3032C7.2411 19.289 7.09153 19.3463 6.96707 19.4748C6.92344 19.5199 6.88938 19.5687 6.86457 19.6214C6.858 19.6356 6.85322 19.6472 6.85053 19.656C6.85202 19.6509 6.85427 19.6426 6.85695 19.6309C6.87623 19.5484 6.89685 19.4145 6.91911 19.2291C6.92383 19.1895 6.92856 19.1479 6.93329 19.1043C6.97208 18.7476 7.01156 18.2575 7.05164 17.634C7.10722 16.7687 7.17625 15.3721 7.25903 13.4442C7.29055 12.7127 7.31237 12.2226 7.32492 11.9738C7.33493 11.7746 7.34359 11.622 7.35121 11.5159C7.3557 11.4524 7.36018 11.4009 7.36436 11.3615C7.37587 11.2563 7.39798 11.1671 7.43085 11.0939C7.48076 10.9826 7.56159 10.8862 7.67335 10.8048C7.70233 10.7837 7.74044 10.7578 7.78765 10.7271C7.86654 10.6758 7.9795 10.6055 8.12637 10.5162C8.38829 10.357 8.77393 10.1278 9.28343 9.82873C9.92157 9.45407 11.1209 8.75627 12.8817 7.73529C15.189 6.39744 16.7922 5.46343 17.6911 4.93325C18.1949 4.63612 18.6114 4.38792 18.9408 4.18864C19.0827 4.10278 19.2085 4.02599 19.318 3.95829C19.5135 3.83748 19.6575 3.74562 19.75 3.68267C19.7869 3.65762 19.8103 3.64098 19.8204 3.63276C19.803 3.64696 19.7845 3.66586 19.7645 3.68946C19.7183 3.74423 19.6818 3.80679 19.6553 3.87718C19.618 3.97569 19.6042 4.07807 19.6133 4.1843C19.6276 4.35154 19.692 4.49215 19.8065 4.60613C19.834 4.6335 19.8601 4.65521 19.8852 4.67129C19.8822 4.66945 19.8758 4.66565 19.8658 4.65988C19.8353 4.64236 19.7912 4.61841 19.7337 4.58804C19.6136 4.52461 19.4509 4.44173 19.2456 4.33939C19.1465 4.29002 19.0449 4.23977 18.9408 4.18864C18.5868 4.01474 18.204 3.83067 17.7925 3.63645C17.2073 3.36021 16.7323 3.14336 16.3673 2.98592C16.2319 2.92748 16.1196 2.88077 16.0305 2.84578C15.9914 2.83041 15.9567 2.8173 15.9265 2.80645C15.8912 2.79376 15.8705 2.78671 15.8642 2.78535C15.8981 2.7928 15.9364 2.79548 15.9788 2.79336C16.0637 2.78915 16.1446 2.76565 16.2216 2.72285C16.3048 2.67658 16.3744 2.61277 16.4303 2.53144C16.4987 2.43206 16.5377 2.32076 16.5475 2.19755L15.3279 2.0851C15.338 1.95966 15.3777 1.84638 15.4472 1.74529C15.5042 1.66223 15.5755 1.59697 15.6608 1.5495C15.7423 1.5043 15.8294 1.47938 15.9225 1.47477C15.9812 1.47185 16.0432 1.47757 16.1086 1.49193C16.1632 1.50392 16.2314 1.52466 16.3135 1.55415C16.4352 1.59788 16.6047 1.66662 16.8219 1.76036C17.199 1.92302 17.6861 2.1453 18.2833 2.42719C19.7273 3.10876 20.5118 3.51185 20.637 3.63651C20.7524 3.75156 20.8174 3.89348 20.832 4.06228C20.8413 4.1701 20.827 4.27429 20.789 4.3749C20.7608 4.44942 20.721 4.51716 20.6696 4.57811C20.6393 4.61396 20.6031 4.64911 20.5611 4.68357C20.5226 4.71511 20.4699 4.75368 20.4028 4.7993C20.2958 4.8721 20.137 4.97351 19.9266 5.10354C19.5557 5.33274 19.0063 5.66201 18.2784 6.09137C17.377 6.62303 15.7713 7.55855 13.4615 8.8979C11.7024 9.91783 10.5049 10.6145 9.86868 10.988C9.36456 11.284 8.98415 11.51 8.72746 11.6661C8.5909 11.7491 8.48825 11.8129 8.41952 11.8576C8.39038 11.8766 8.37006 11.8902 8.35856 11.8986C8.362 11.8961 8.36737 11.8916 8.3747 11.8853C8.44089 11.8281 8.49363 11.7559 8.53263 11.6687C8.55564 11.6176 8.57132 11.567 8.57954 11.5171L8.57999 11.5155C8.57775 11.5372 8.57491 11.571 8.57162 11.6168C8.56475 11.713 8.55668 11.8558 8.54712 12.0452C8.53487 12.2905 8.51305 12.7772 8.48182 13.5052C8.3986 15.4432 8.32882 16.8498 8.27265 17.7252C8.22603 18.4508 8.17956 19.0083 8.13295 19.3977C8.10471 19.635 8.07497 19.8202 8.04389 19.9534C7.93318 20.4273 7.69322 20.6493 7.32402 20.6194C7.17924 20.6077 6.88983 20.5079 6.45593 20.32C6.06327 20.15 5.65059 19.9556 5.21774 19.737C4.72154 19.4863 4.31245 19.2597 3.99046 19.0571C3.79697 18.9353 3.64009 18.8248 3.51981 18.7254C3.32094 18.5612 3.19035 18.3935 3.12805 18.2224C3.09323 18.1267 3.07217 18.0003 3.0647 17.8431C3.06006 17.7462 3.05887 17.6235 3.06126 17.475C3.06529 17.2158 3.07979 16.8682 3.10489 16.4323C3.14717 15.6989 3.2177 14.7354 3.31646 13.5417C3.39206 12.6283 3.47528 11.6834 3.56628 10.707C3.64532 9.85793 3.69193 9.38724 3.70583 9.29493C3.73123 9.12707 3.81266 8.9797 3.94982 8.85285C3.98852 8.81703 4.03887 8.77576 4.10073 8.72905C4.19815 8.65544 4.33725 8.55821 4.51819 8.43738C4.83629 8.22479 5.30634 7.92406 5.92805 7.53522C6.7056 7.04894 8.17538 6.14551 10.3375 4.82494C12.8061 3.3171 14.5707 2.23218 15.6311 1.57014L16.2443 2.71251Z" fill="white"/>
<path d="M16.0305 2.84578C16.1047 2.79963 16.176 2.75518 16.2443 2.71251L15.6311 1.57014C14.5707 2.23218 12.8061 3.3171 10.3375 4.82494C8.17538 6.14551 6.7056 7.04894 5.92805 7.53522C5.30634 7.92406 4.83629 8.22479 4.51819 8.43738C4.33725 8.55821 4.19815 8.65544 4.10073 8.72905C4.03887 8.77576 3.98852 8.81703 3.94982 8.85285C3.81266 8.9797 3.73123 9.12707 3.70583 9.29493C3.69193 9.38724 3.64532 9.85793 3.56628 10.707C3.47528 11.6834 3.39206 12.6283 3.31646 13.5417C3.2177 14.7354 3.14717 15.6989 3.10489 16.4323C3.07979 16.8682 3.06529 17.2158 3.06126 17.475C3.05887 17.6235 3.06006 17.7462 3.0647 17.8431C3.07217 18.0003 3.09323 18.1267 3.12805 18.2224C3.19035 18.3935 3.32094 18.5612 3.51981 18.7254C3.64009 18.8248 3.79697 18.9353 3.99046 19.0571C4.31245 19.2597 4.72154 19.4863 5.21774 19.737C5.65059 19.9556 6.06327 20.15 6.45593 20.32C6.88983 20.5079 7.17924 20.6077 7.32402 20.6194C7.69322 20.6493 7.93318 20.4273 8.04389 19.9534C8.07497 19.8202 8.10471 19.635 8.13295 19.3977C8.17956 19.0083 8.22603 18.4508 8.27265 17.7252C8.32882 16.8498 8.3986 15.4432 8.48182 13.5052C8.51305 12.7772 8.53487 12.2905 8.54712 12.0452C8.55668 11.8558 8.56475 11.713 8.57162 11.6168C8.57491 11.571 8.57775 11.5372 8.57999 11.5155L8.57954 11.5171C8.57132 11.567 8.55564 11.6176 8.53263 11.6687C8.49363 11.7559 8.44089 11.8281 8.3747 11.8853C8.36737 11.8916 8.362 11.8961 8.35856 11.8986C8.37006 11.8902 8.39038 11.8766 8.41952 11.8576C8.48825 11.8129 8.5909 11.7491 8.72746 11.6661C8.98415 11.51 9.36456 11.284 9.86868 10.988C10.5049 10.6145 11.7024 9.91783 13.4615 8.8979C15.7713 7.55855 17.377 6.62303 18.2784 6.09137C19.0063 5.66201 19.5557 5.33274 19.9266 5.10354C20.137 4.97351 20.2958 4.8721 20.4028 4.7993C20.4699 4.75368 20.5226 4.71511 20.5611 4.68357C20.6031 4.64911 20.6393 4.61396 20.6696 4.57811C20.721 4.51716 20.7608 4.44942 20.789 4.3749C20.827 4.27429 20.8413 4.1701 20.832 4.06228C20.8174 3.89348 20.7524 3.75156 20.637 3.63651C20.5118 3.51185 19.7273 3.10876 18.2833 2.42719C17.6861 2.1453 17.199 1.92302 16.8219 1.76036C16.6047 1.66662 16.4352 1.59788 16.3135 1.55415C16.2314 1.52466 16.1632 1.50392 16.1086 1.49193C16.0432 1.47757 15.9812 1.47185 15.9225 1.47477C15.8294 1.47938 15.7423 1.5043 15.6608 1.5495C15.5755 1.59697 15.5042 1.66223 15.4472 1.74529C15.3777 1.84638 15.338 1.95966 15.3279 2.0851L16.5475 2.19755C16.5377 2.32076 16.4987 2.43206 16.4303 2.53144C16.3744 2.61277 16.3048 2.67658 16.2216 2.72285C16.1446 2.76565 16.0637 2.78915 15.9788 2.79336C15.9364 2.79548 15.8981 2.7928 15.8642 2.78535C15.8705 2.78671 15.8912 2.79376 15.9265 2.80645C15.9567 2.8173 15.9914 2.83041 16.0305 2.84578ZM16.0305 2.84578C14.9505 3.51809 13.254 4.56066 10.9407 5.97352C8.78215 7.29187 7.31595 8.19307 6.54214 8.67709C5.93059 9.05952 5.47085 9.35365 5.16276 9.55953C5.0514 9.63383 4.95983 9.69663 4.88794 9.74793M16.0305 2.84578C16.1196 2.88077 16.2319 2.92748 16.3673 2.98592C16.7323 3.14336 17.2073 3.36021 17.7925 3.63645C18.204 3.83067 18.5868 4.01474 18.9408 4.18864M4.88794 9.74793C4.85565 9.77103 4.82733 9.79173 4.80297 9.81013C4.77383 9.83223 4.75501 9.84713 4.74649 9.85503C4.7568 9.84543 4.76861 9.83253 4.7816 9.81653C4.85168 9.72983 4.89576 9.62693 4.91384 9.50773C4.91007 9.53273 4.90143 9.61273 4.88794 9.74793ZM4.88794 9.74793C4.86607 9.96703 4.83145 10.3306 4.78414 10.8389C4.6936 11.8105 4.61068 12.7505 4.53552 13.659C4.4378 14.8409 4.36803 15.7926 4.32649 16.5141C4.30259 16.9301 4.28869 17.2578 4.2851 17.497C4.28385 17.5735 4.28371 17.6392 4.28462 17.6942M4.28462 17.6942C4.28511 17.7246 4.28593 17.7517 4.28705 17.7756C4.28824 17.7994 4.28944 17.8164 4.29063 17.8265C4.28779 17.8034 4.28002 17.7746 4.26747 17.7402C4.24865 17.6882 4.22788 17.6496 4.20547 17.6244C4.21607 17.6364 4.23565 17.654 4.26389 17.6774C4.27055 17.6829 4.27746 17.6885 4.28462 17.6942ZM4.28462 17.6942C4.36293 17.7566 4.47047 17.8309 4.60724 17.917C4.89755 18.0996 5.27407 18.3078 5.73695 18.5416C6.14903 18.7498 6.54065 18.9343 6.91209 19.0951C6.91921 19.0982 6.92628 19.1013 6.93329 19.1043M6.93329 19.1043C7.09028 19.172 7.22112 19.2253 7.32566 19.2642C7.37422 19.2822 7.41307 19.2956 7.44206 19.3044C7.45072 19.307 7.45655 19.3086 7.45954 19.3093C7.44803 19.3066 7.43324 19.3046 7.41546 19.3032C7.2411 19.289 7.09153 19.3463 6.96707 19.4748C6.92344 19.5199 6.88938 19.5687 6.86457 19.6214C6.858 19.6356 6.85322 19.6472 6.85053 19.656C6.85202 19.6509 6.85427 19.6426 6.85695 19.6309C6.87623 19.5484 6.89685 19.4145 6.91911 19.2291C6.92383 19.1895 6.92856 19.1479 6.93329 19.1043ZM6.93329 19.1043C6.97208 18.7476 7.01156 18.2575 7.05164 17.634C7.10722 16.7687 7.17625 15.3721 7.25903 13.4442C7.29055 12.7127 7.31237 12.2226 7.32492 11.9738C7.33493 11.7746 7.34359 11.622 7.35121 11.5159C7.3557 11.4524 7.36018 11.4009 7.36436 11.3615C7.37587 11.2563 7.39798 11.1671 7.43085 11.0939C7.48076 10.9826 7.56159 10.8862 7.67335 10.8048C7.70233 10.7837 7.74044 10.7578 7.78765 10.7271C7.86654 10.6758 7.9795 10.6055 8.12637 10.5162C8.38829 10.357 8.77393 10.1278 9.28343 9.82873C9.92157 9.45407 11.1209 8.75627 12.8817 7.73529C15.189 6.39744 16.7922 5.46343 17.6911 4.93325C18.1949 4.63612 18.6114 4.38792 18.9408 4.18864M18.9408 4.18864C19.0827 4.10278 19.2085 4.02599 19.318 3.95829C19.5135 3.83748 19.6575 3.74562 19.75 3.68267C19.7869 3.65762 19.8103 3.64098 19.8204 3.63276C19.803 3.64696 19.7845 3.66586 19.7645 3.68946C19.7183 3.74423 19.6818 3.80679 19.6553 3.87718C19.618 3.97569 19.6042 4.07807 19.6133 4.1843C19.6276 4.35154 19.692 4.49215 19.8065 4.60613C19.834 4.6335 19.8601 4.65521 19.8852 4.67129C19.8822 4.66945 19.8758 4.66565 19.8658 4.65988C19.8353 4.64236 19.7912 4.61841 19.7337 4.58804C19.6136 4.52461 19.4509 4.44173 19.2456 4.33939C19.1465 4.29002 19.0449 4.23977 18.9408 4.18864Z" stroke="white" stroke-width="0.999999"/>
</svg>
