<svg viewBox="0 0 24.48 24" xmlns="http://www.w3.org/2000/svg" xmlns:xlink="http://www.w3.org/1999/xlink" width="24.479980" height="24.000000" fill="none" customFrame="#000000">
	<g id="Сочетание 1">
		<path id="Rectangle 101" d="M2.87103 4.40894L10.111 1.00188C11.4594 0.367336 13.0206 0.367333 14.369 1.00187L21.609 4.40893C23.3614 5.23361 24.48 6.99621 24.48 8.93303L24.48 15.4315C24.48 17.4273 23.2931 19.232 21.4604 20.0226L14.2205 23.1457C12.9564 23.6909 11.5236 23.6909 10.2595 23.1457L3.01955 20.0226C1.18694 19.232 0 17.4273 0 15.4315L4.22269e-05 8.93301C4.22269e-05 6.99621 1.11858 5.23363 2.87103 4.40894Z" fill="rgb(196,196,196)" fill-rule="evenodd" />
		<path id="Union" d="M16.2443 3.23848C16.176 3.28115 16.1047 3.3256 16.0305 3.37175C14.9505 4.04406 13.254 5.08663 10.9407 6.49949C8.78215 7.81784 7.31595 8.71904 6.54214 9.20306C5.93059 9.58549 5.47085 9.87962 5.16276 10.0855C5.0514 10.1598 4.95983 10.2226 4.88794 10.2739C4.85565 10.297 4.82733 10.3177 4.80297 10.3361C4.77383 10.3582 4.75501 10.3731 4.74649 10.381C4.7568 10.3714 4.76861 10.3585 4.7816 10.3425C4.85168 10.2558 4.89576 10.1529 4.91384 10.0337C4.91007 10.0587 4.90143 10.1387 4.88794 10.2739C4.86607 10.493 4.83145 10.8566 4.78414 11.3649C4.6936 12.3365 4.61068 13.2765 4.53552 14.185C4.4378 15.3669 4.36803 16.3186 4.32649 17.0401C4.30259 17.4561 4.28869 17.7838 4.2851 18.023C4.28385 18.0995 4.28371 18.1652 4.28462 18.2202C4.28511 18.2506 4.28593 18.2777 4.28705 18.3016C4.28824 18.3254 4.28944 18.3424 4.29063 18.3525C4.28779 18.3294 4.28002 18.3006 4.26747 18.2662C4.24865 18.2142 4.22788 18.1756 4.20547 18.1504C4.21607 18.1624 4.23565 18.18 4.26389 18.2034C4.27055 18.2089 4.27746 18.2145 4.28462 18.2202C4.36293 18.2826 4.47047 18.3569 4.60724 18.443C4.89755 18.6256 5.27407 18.8338 5.73695 19.0676C6.14903 19.2758 6.54065 19.4603 6.91209 19.6211C6.91921 19.6242 6.92628 19.6273 6.93329 19.6303C7.09028 19.698 7.22112 19.7513 7.32566 19.7902C7.37422 19.8082 7.41307 19.8216 7.44206 19.8304C7.45072 19.833 7.45655 19.8346 7.45954 19.8353C7.44803 19.8326 7.43324 19.8306 7.41546 19.8292C7.2411 19.815 7.09153 19.8723 6.96707 20.0008C6.92344 20.0459 6.88938 20.0947 6.86457 20.1474C6.858 20.1616 6.85322 20.1732 6.85053 20.182C6.85202 20.1769 6.85427 20.1686 6.85695 20.1569C6.87623 20.0744 6.89685 19.9405 6.91911 19.7551C6.92383 19.7155 6.92856 19.6739 6.93329 19.6303C6.97208 19.2736 7.01156 18.7835 7.05164 18.16C7.10722 17.2947 7.17625 15.8981 7.25903 13.9702C7.29055 13.2387 7.31237 12.7486 7.32492 12.4998C7.33493 12.3006 7.34359 12.148 7.35121 12.0419C7.3557 11.9784 7.36018 11.9269 7.36436 11.8875C7.37587 11.7823 7.39798 11.6931 7.43085 11.6199C7.48076 11.5086 7.56159 11.4122 7.67335 11.3308C7.70233 11.3097 7.74044 11.2838 7.78765 11.2531C7.86654 11.2018 7.9795 11.1315 8.12637 11.0422C8.38829 10.883 8.77393 10.6538 9.28343 10.3547C9.92157 9.98004 11.1209 9.28224 12.8817 8.26126C15.189 6.92341 16.7922 5.9894 17.6911 5.45922C18.1949 5.16209 18.6114 4.91389 18.9408 4.71461C19.0827 4.62875 19.2085 4.55196 19.318 4.48426C19.5135 4.36345 19.6575 4.27159 19.75 4.20864C19.7869 4.18359 19.8103 4.16695 19.8204 4.15873C19.803 4.17293 19.7845 4.19183 19.7645 4.21543C19.7183 4.2702 19.6818 4.33276 19.6553 4.40315C19.618 4.50166 19.6042 4.60404 19.6133 4.71027C19.6276 4.87751 19.692 5.01812 19.8065 5.1321C19.834 5.15947 19.8601 5.18118 19.8852 5.19726C19.8822 5.19542 19.8758 5.19162 19.8658 5.18585C19.8353 5.16833 19.7912 5.14438 19.7337 5.11401C19.6136 5.05058 19.4509 4.9677 19.2456 4.86536C19.1465 4.81599 19.0449 4.76574 18.9408 4.71461C18.5868 4.54071 18.204 4.35664 17.7925 4.16242C17.2073 3.88618 16.7323 3.66933 16.3673 3.51189C16.2319 3.45345 16.1196 3.40674 16.0305 3.37175C15.9914 3.35638 15.9567 3.34327 15.9265 3.33242C15.8912 3.31973 15.8705 3.31268 15.8642 3.31132C15.8981 3.31877 15.9364 3.32145 15.9788 3.31933C16.0637 3.31512 16.1446 3.29162 16.2216 3.24882C16.3048 3.20255 16.3744 3.13874 16.4303 3.05741C16.4987 2.95803 16.5377 2.84673 16.5475 2.72352L15.3279 2.61107C15.338 2.48563 15.3777 2.37235 15.4472 2.27126C15.5042 2.1882 15.5755 2.12294 15.6608 2.07547C15.7423 2.03027 15.8294 2.00535 15.9225 2.00074C15.9812 1.99782 16.0432 2.00354 16.1086 2.0179C16.1632 2.02989 16.2314 2.05063 16.3135 2.08012C16.4352 2.12385 16.6047 2.19259 16.8219 2.28633C17.199 2.44899 17.6861 2.67127 18.2833 2.95316C19.7273 3.63473 20.5118 4.03782 20.637 4.16248C20.7524 4.27753 20.8174 4.41945 20.832 4.58825C20.8413 4.69607 20.827 4.80026 20.789 4.90087C20.7608 4.97539 20.721 5.04313 20.6696 5.10408C20.6393 5.13993 20.6031 5.17508 20.5611 5.20954C20.5226 5.24108 20.4699 5.27965 20.4028 5.32527C20.2958 5.39807 20.137 5.49948 19.9266 5.62951C19.5557 5.85871 19.0063 6.18798 18.2784 6.61734C17.377 7.149 15.7713 8.08452 13.4615 9.42387C11.7024 10.4438 10.5049 11.1405 9.86868 11.514C9.36456 11.81 8.98415 12.036 8.72746 12.1921C8.5909 12.2751 8.48825 12.3389 8.41952 12.3836C8.39038 12.4026 8.37006 12.4162 8.35856 12.4246C8.362 12.4221 8.36737 12.4176 8.3747 12.4113C8.44089 12.3541 8.49363 12.2819 8.53263 12.1947C8.55564 12.1436 8.57132 12.093 8.57954 12.0431L8.57999 12.0415C8.57775 12.0632 8.57491 12.097 8.57162 12.1428C8.56475 12.239 8.55668 12.3818 8.54712 12.5712C8.53487 12.8165 8.51305 13.3032 8.48182 14.0312C8.3986 15.9692 8.32882 17.3758 8.27265 18.2512C8.22603 18.9768 8.17956 19.5343 8.13295 19.9237C8.10471 20.161 8.07497 20.3462 8.04389 20.4794C7.93318 20.9533 7.69322 21.1753 7.32402 21.1454C7.17924 21.1337 6.88983 21.0339 6.45593 20.846C6.06327 20.676 5.65059 20.4816 5.21774 20.263C4.72154 20.0123 4.31245 19.7857 3.99046 19.5831C3.79697 19.4613 3.64009 19.3508 3.51981 19.2514C3.32094 19.0872 3.19035 18.9195 3.12805 18.7484C3.09323 18.6527 3.07217 18.5263 3.0647 18.3691C3.06006 18.2722 3.05887 18.1495 3.06126 18.001C3.06529 17.7418 3.07979 17.3942 3.10489 16.9583C3.14717 16.2249 3.2177 15.2614 3.31646 14.0677C3.39206 13.1543 3.47528 12.2094 3.56628 11.233C3.64532 10.3839 3.69193 9.91321 3.70583 9.8209C3.73123 9.65304 3.81266 9.50567 3.94982 9.37882C3.98852 9.343 4.03887 9.30173 4.10073 9.25502C4.19815 9.18141 4.33725 9.08418 4.51819 8.96335C4.83629 8.75076 5.30634 8.45003 5.92805 8.06119C6.7056 7.57491 8.17538 6.67148 10.3375 5.35091C12.8061 3.84307 14.5707 2.75815 15.6311 2.09611L16.2443 3.23848Z" fill="rgb(255,255,255)" fill-rule="evenodd" />
		<path id="Union" d="M16.2443 3.23848C16.176 3.28115 16.1047 3.3256 16.0305 3.37175C14.9505 4.04406 13.254 5.08663 10.9407 6.49949C8.78215 7.81784 7.31595 8.71904 6.54214 9.20306C5.93059 9.58549 5.47085 9.87962 5.16276 10.0855C5.0514 10.1598 4.95983 10.2226 4.88794 10.2739C4.85565 10.297 4.82733 10.3177 4.80297 10.3361C4.77383 10.3582 4.75501 10.3731 4.74649 10.381C4.7568 10.3714 4.76861 10.3585 4.7816 10.3425C4.85168 10.2558 4.89576 10.1529 4.91384 10.0337C4.91007 10.0587 4.90143 10.1387 4.88794 10.2739C4.86607 10.493 4.83145 10.8566 4.78414 11.3649C4.6936 12.3365 4.61068 13.2765 4.53552 14.185C4.4378 15.3669 4.36803 16.3186 4.32649 17.0401C4.30259 17.4561 4.28869 17.7838 4.2851 18.023C4.28385 18.0995 4.28371 18.1652 4.28462 18.2202C4.28511 18.2506 4.28593 18.2777 4.28705 18.3016C4.28824 18.3254 4.28944 18.3424 4.29063 18.3525C4.28779 18.3294 4.28002 18.3006 4.26747 18.2662C4.24865 18.2142 4.22788 18.1756 4.20547 18.1504C4.21607 18.1624 4.23565 18.18 4.26389 18.2034C4.27055 18.2089 4.27746 18.2145 4.28462 18.2202C4.36293 18.2826 4.47047 18.3569 4.60724 18.443C4.89755 18.6256 5.27407 18.8338 5.73695 19.0676C6.14903 19.2758 6.54065 19.4603 6.91209 19.6211C6.91921 19.6242 6.92628 19.6273 6.93329 19.6303C7.09028 19.698 7.22112 19.7513 7.32566 19.7902C7.37422 19.8082 7.41307 19.8216 7.44206 19.8304C7.45072 19.833 7.45655 19.8346 7.45954 19.8353C7.44803 19.8326 7.43324 19.8306 7.41546 19.8292C7.2411 19.815 7.09153 19.8723 6.96707 20.0008C6.92344 20.0459 6.88938 20.0947 6.86457 20.1474C6.858 20.1616 6.85322 20.1732 6.85053 20.182C6.85202 20.1769 6.85427 20.1686 6.85695 20.1569C6.87623 20.0744 6.89685 19.9405 6.91911 19.7551C6.92383 19.7155 6.92856 19.6739 6.93329 19.6303C6.97208 19.2736 7.01156 18.7835 7.05164 18.16C7.10722 17.2947 7.17625 15.8981 7.25903 13.9702C7.29055 13.2387 7.31237 12.7486 7.32492 12.4998C7.33493 12.3006 7.34359 12.148 7.35121 12.0419C7.3557 11.9784 7.36018 11.9269 7.36436 11.8875C7.37587 11.7823 7.39798 11.6931 7.43085 11.6199C7.48076 11.5086 7.56159 11.4122 7.67335 11.3308C7.70233 11.3097 7.74044 11.2838 7.78765 11.2531C7.86654 11.2018 7.9795 11.1315 8.12637 11.0422C8.38829 10.883 8.77393 10.6538 9.28343 10.3547C9.92157 9.98004 11.1209 9.28224 12.8817 8.26126C15.189 6.92341 16.7922 5.9894 17.6911 5.45922C18.1949 5.16209 18.6114 4.91389 18.9408 4.71461C19.0827 4.62875 19.2085 4.55196 19.318 4.48426C19.5135 4.36345 19.6575 4.27159 19.75 4.20864C19.7869 4.18359 19.8103 4.16695 19.8204 4.15873C19.803 4.17293 19.7845 4.19183 19.7645 4.21543C19.7183 4.2702 19.6818 4.33276 19.6553 4.40315C19.618 4.50166 19.6042 4.60404 19.6133 4.71027C19.6276 4.87751 19.692 5.01812 19.8065 5.1321C19.834 5.15947 19.8601 5.18118 19.8852 5.19726C19.8822 5.19542 19.8758 5.19162 19.8658 5.18585C19.8353 5.16833 19.7912 5.14438 19.7337 5.11401C19.6136 5.05058 19.4509 4.9677 19.2456 4.86536C19.1465 4.81599 19.0449 4.76574 18.9408 4.71461C18.5868 4.54071 18.204 4.35664 17.7925 4.16242C17.2073 3.88618 16.7323 3.66933 16.3673 3.51189C16.2319 3.45345 16.1196 3.40674 16.0305 3.37175C15.9914 3.35638 15.9567 3.34327 15.9265 3.33242C15.8912 3.31973 15.8705 3.31268 15.8642 3.31132C15.8981 3.31877 15.9364 3.32145 15.9788 3.31933C16.0637 3.31512 16.1446 3.29162 16.2216 3.24882C16.3048 3.20255 16.3744 3.13874 16.4303 3.05741C16.4987 2.95803 16.5377 2.84673 16.5475 2.72352L15.3279 2.61107C15.338 2.48563 15.3777 2.37235 15.4472 2.27126C15.5042 2.1882 15.5755 2.12294 15.6608 2.07547C15.7423 2.03027 15.8294 2.00535 15.9225 2.00074C15.9812 1.99782 16.0432 2.00354 16.1086 2.0179C16.1632 2.02989 16.2314 2.05063 16.3135 2.08012C16.4352 2.12385 16.6047 2.19259 16.8219 2.28633C17.199 2.44899 17.6861 2.67127 18.2833 2.95316C19.7273 3.63473 20.5118 4.03782 20.637 4.16248C20.7524 4.27753 20.8174 4.41945 20.832 4.58825C20.8413 4.69607 20.827 4.80026 20.789 4.90087C20.7608 4.97539 20.721 5.04313 20.6696 5.10408C20.6393 5.13993 20.6031 5.17508 20.5611 5.20954C20.5226 5.24108 20.4699 5.27965 20.4028 5.32527C20.2958 5.39807 20.137 5.49948 19.9266 5.62951C19.5557 5.85871 19.0063 6.18798 18.2784 6.61734C17.377 7.149 15.7713 8.08452 13.4615 9.42387C11.7024 10.4438 10.5049 11.1405 9.86868 11.514C9.36456 11.81 8.98415 12.036 8.72746 12.1921C8.5909 12.2751 8.48825 12.3389 8.41952 12.3836C8.39038 12.4026 8.37006 12.4162 8.35856 12.4246C8.362 12.4221 8.36737 12.4176 8.3747 12.4113C8.44089 12.3541 8.49363 12.2819 8.53263 12.1947C8.55564 12.1436 8.57132 12.093 8.57954 12.0431L8.57999 12.0415C8.57775 12.0632 8.57491 12.097 8.57162 12.1428C8.56475 12.239 8.55668 12.3818 8.54712 12.5712C8.53487 12.8165 8.51305 13.3032 8.48182 14.0312C8.3986 15.9692 8.32882 17.3758 8.27265 18.2512C8.22603 18.9768 8.17956 19.5343 8.13295 19.9237C8.10471 20.161 8.07497 20.3462 8.04389 20.4794C7.93318 20.9533 7.69322 21.1753 7.32402 21.1454C7.17924 21.1337 6.88983 21.0339 6.45593 20.846C6.06327 20.676 5.65059 20.4816 5.21774 20.263C4.72154 20.0123 4.31245 19.7857 3.99046 19.5831C3.79697 19.4613 3.64009 19.3508 3.51981 19.2514C3.32094 19.0872 3.19035 18.9195 3.12805 18.7484C3.09323 18.6527 3.07217 18.5263 3.0647 18.3691C3.06006 18.2722 3.05887 18.1495 3.06126 18.001C3.06529 17.7418 3.07979 17.3942 3.10489 16.9583C3.14717 16.2249 3.2177 15.2614 3.31646 14.0677C3.39206 13.1543 3.47528 12.2094 3.56628 11.233C3.64532 10.3839 3.69193 9.91321 3.70583 9.8209C3.73123 9.65304 3.81266 9.50567 3.94982 9.37882C3.98852 9.343 4.03887 9.30173 4.10073 9.25502C4.19815 9.18141 4.33725 9.08418 4.51819 8.96335C4.83629 8.75076 5.30634 8.45003 5.92805 8.06119C6.7056 7.57491 8.17538 6.67148 10.3375 5.35091C12.8061 3.84307 14.5707 2.75815 15.6311 2.09611L16.2443 3.23848Z" fill-rule="evenodd" stroke="rgb(255,255,255)" stroke-width="1" />
	</g>
</svg>
