<svg viewBox="0 0 26.3455 21.6535" xmlns="http://www.w3.org/2000/svg" xmlns:xlink="http://www.w3.org/1999/xlink" width="26.345459" height="21.653503" fill="none" customFrame="#000000">
	<defs>
		<filter id="pixso_custom_mask_type_outline">
			<feColorMatrix type="matrix" values="0 0 0 0 1 0 0 0 0 1 0 0 0 0 1 0 0 0 1 0 " />
		</filter>
	</defs>
	<mask id="mask_0" width="14.936455" height="13.708334" x="3.000000" y="3.000000" maskUnits="userSpaceOnUse">
		<g filter="url(#pixso_custom_mask_type_outline)">
			<ellipse id="Oval 2" rx="7.468227" ry="6.854167" cx="10.4682274" cy="9.85416698" fill="rgb(255,255,255)" fill-opacity="0" />
			<ellipse id="Oval 2" rx="8.968227" ry="8.354167" cx="10.4682274" cy="9.85416698" stroke="rgb(255,255,255)" stroke-width="3" />
		</g>
	</mask>
	<g id="Group 5">
		<g id="Group 4" showMaskRef="url(#show_mask_0)" mask="url(#mask_0)">
			<g id="show_mask_0">
				<ellipse id="Oval 2" rx="7.468227" ry="6.854167" cx="10.4682274" cy="9.85416698" fill="rgb(255,255,255)" fill-opacity="0" />
				<ellipse id="Oval 2" rx="8.968227" ry="8.354167" cx="10.4682274" cy="9.85416698" stroke="rgb(255,255,255)" stroke-width="3" />
			</g>
		</g>
		<path id="Vector 1" d="M20.1871 14.117L25.5215 18.0337L23.1542 21.2579L17.8198 17.3413L20.1871 14.117ZM17.8359 17.3531L16.2076 16.1576L18.5749 12.9334L20.2032 14.1289L17.8359 17.3531ZM25.4936 18.038L25.5215 18.0337C26.4243 18.6965 26.6128 19.9267 25.95 20.8295C25.2871 21.7323 24.057 21.9208 23.1542 21.2579L23.1499 21.23L25.4936 18.038Z" fill="rgb(255,255,255)" fill-rule="nonzero" />
	</g>
</svg>
