<svg width="27" height="22" viewBox="0 0 27 22" fill="none" xmlns="http://www.w3.org/2000/svg">
<mask id="mask0_1_6" style="mask-type:luminance" maskUnits="userSpaceOnUse" x="0" y="0" width="21" height="20">
<path d="M10.4682 18.2083C15.4212 18.2083 19.4365 14.468 19.4365 9.85417C19.4365 5.24029 15.4212 1.5 10.4682 1.5C5.51521 1.5 1.5 5.24029 1.5 9.85417C1.5 14.468 5.51521 18.2083 10.4682 18.2083Z" stroke="white" stroke-width="3"/>
</mask>
<g mask="url(#mask0_1_6)">
<path d="M10.4682 18.2083C15.4212 18.2083 19.4365 14.468 19.4365 9.85417C19.4365 5.24029 15.4212 1.5 10.4682 1.5C5.51521 1.5 1.5 5.24029 1.5 9.85417C1.5 14.468 5.51521 18.2083 10.4682 18.2083Z" stroke="white" stroke-width="3"/>
</g>
<path d="M20.1871 14.117L25.5215 18.0337L23.1542 21.2579L17.8198 17.3413L20.1871 14.117ZM17.8359 17.3531L16.2076 16.1576L18.5749 12.9334L20.2032 14.1289L17.8359 17.3531ZM25.4936 18.038L25.5215 18.0337C26.4243 18.6965 26.6128 19.9267 25.95 20.8295C25.2871 21.7323 24.057 21.9208 23.1542 21.2579L23.1499 21.23L25.4936 18.038Z" fill="white"/>
</svg>
