<svg width="25" height="24" viewBox="0 0 25 24" fill="none" xmlns="http://www.w3.org/2000/svg">
<path d="M9.33706 2.03645C9.45902 1.67027 9.44482 1.2671 9.29748 0.912004C9.15013 0.556912 8.88109 0.277657 8.54718 0.133187C8.21327 -0.011338 7.84057 -0.00981794 7.50771 0.137467C7.17479 0.284694 6.90777 0.566145 6.76292 0.922476L4.33717 7.48496H2.93498C1.44401 7.48496 0.697819 7.48496 0.283142 8.0044C-0.132938 8.52389 -0.0247577 9.32264 0.190221 10.9201L0.564673 13.7186C1.22489 18.6206 1.55359 21.0723 3.11665 22.5362C4.67971 24 6.96815 24 11.5464 24H12.8751C17.452 24 19.7405 24 21.3049 22.5362C22.868 21.0723 23.1967 18.6206 23.8569 13.7186L24.2313 10.9201C24.4464 9.32264 24.5531 8.52389 24.1385 8.0044C23.7237 7.48496 22.9776 7.48496 21.4866 7.48496H20.0844L17.6601 0.922476C17.5197 0.558826 17.2528 0.26955 16.9172 0.117029C16.5815 -0.0355477 16.2038 -0.0390383 15.8658 0.107176C15.5277 0.253391 15.2563 0.537656 15.1101 0.898605C14.964 1.25955 14.9548 1.66824 15.0845 2.03645L17.097 7.48496H7.32463L9.33706 2.03645ZM10.8239 14.9918V17.9945C10.8239 18.3927 10.6777 18.7746 10.4176 19.0562C10.1575 19.3377 9.80473 19.4959 9.43692 19.4959C9.0691 19.4959 8.71632 19.3377 8.45621 19.0562C8.19611 18.7746 8.04996 18.3927 8.04996 17.9945V14.9918C8.04996 14.5936 8.19611 14.2117 8.45621 13.9302C8.71632 13.6486 9.0691 13.4904 9.43692 13.4904C9.80473 13.4904 10.1575 13.6486 10.4176 13.9302C10.6777 14.2117 10.8239 14.5936 10.8239 14.9918ZM14.9847 13.4904C15.3525 13.4904 15.7053 13.6486 15.9654 13.9302C16.2255 14.2117 16.3716 14.5936 16.3716 14.9918V17.9945C16.3716 18.3927 16.2255 18.7746 15.9654 19.0562C15.7053 19.3377 15.3525 19.4959 14.9847 19.4959C14.6168 19.4959 14.264 19.3377 14.0039 19.0562C13.7439 18.7746 13.5977 18.3927 13.5977 17.9945V14.9918C13.5977 14.5936 13.7439 14.2117 14.0039 13.9302C14.264 13.6486 14.6168 13.4904 14.9847 13.4904Z" fill="#005BFF"/>
</svg>
